<svg xmlns="http://www.w3.org/2000/svg" width="512" height="512" viewBox="0 0 512 512" style="overflow: visible;" data-svgdocument="" id="_EhxCjg0eFd-gWAOw8alkU" class="fl-svgdocument" x="0" y="0" overflow="hidden"><defs id="_NVSUhYTtPwk97Q54rUMxx" transform="matrix(1.1951687708497047, 0, 0, 1.1951687708497047, -12.51139497756958, 141.26140213012695)" data-uid="o_f5b3lj5ae_5"><linearGradient id="o_f5b3lj5ae_3" x1="0" y1="0.5" x2="1" y2="0.5" data-uid="o_f5b3lj5ae_6"><stop id="_3m4cezOni4tb2P8V2Ksai" offset="0%" stop-color="rgb(67, 207, 217)" data-uid="o_f5b3lj5ae_7"></stop><stop id="_j0VHyOT3q9pLPviRbj7a9" offset="100%" stop-color="rgb(116, 209, 76)" data-uid="o_f5b3lj5ae_8"></stop></linearGradient><linearGradient id="o_f5b3lj5ae_22" gradientUnits="userSpaceOnUse" x1="255.999" x2="255.999" y1="511.999" y2="0" data-uid="o_f5b3lj5ae_35"><stop offset="0" stop-color="rgb(66,85,255)" data-uid="o_f5b3lj5ae_36" stop-opacity="1"></stop><stop offset="1" stop-color="rgb(67,207,217)" data-uid="o_f5b3lj5ae_37" stop-opacity="1"></stop></linearGradient></defs><path text="flash" text-anchor="start" font-size="100" letter-spacing="0" side="left" offset="0" dx="0" dy="0" space="preserve" href="" font-family="Bungee" font-scale="contain" transform="matrix(0.7251043634878852, 0, 0, 0.7251043634878852, 180.83506870823288, 251.64937292126666)" x="0" y="0" fill="rgba(66, 85, 255, 1)" data-fl-textpath="" id="_z5CNUfQuDwRMN9gngi9lT" data-uid="o_f5b3lj5ae_10" d="M 26 0L 26 0L 10.5 0Q 8.6 0  7.75-0.85Q 6.9-1.7  6.9-3.6L 6.9-3.6L 6.9-68.4Q 6.9-70.3  7.75-71.15Q 8.6-72  10.5-72L 10.5-72L 55.1-72Q 57-72  57.85-71.15Q 58.7-70.3  58.7-68.4L 58.7-68.4L 58.7-56.5Q 58.7-54.6  57.85-53.75Q 57-52.9  55.1-52.9L 55.1-52.9L 29.6-52.9L 29.6-42.5L 47-42.5Q 48.9-42.5  49.75-41.65Q 50.6-40.8  50.6-38.9L 50.6-38.9L 50.6-26.9Q 50.6-25  49.75-24.15Q 48.9-23.3  47-23.3L 47-23.3L 29.6-23.3L 29.6-3.6Q 29.6-1.7  28.75-0.85Q 27.9 0  26 0ZM 123.20000000000002 0L 123.20000000000002 0L 72.30000000000001 0Q 70.4 0  69.55000000000001-0.85Q 68.70000000000002-1.7  68.70000000000002-3.6L 68.70000000000002-3.6L 68.70000000000002-68.4Q 68.70000000000002-70.3  69.55000000000001-71.15Q 70.4-72  72.30000000000001-72L 72.30000000000001-72L 87.80000000000001-72Q 89.70000000000002-72  90.55000000000001-71.15Q 91.4-70.3  91.4-68.4L 91.4-68.4L 91.4-18.9L 105.10000000000001-18.9L 105.10000000000001-35.1Q 105.10000000000001-37  105.95000000000002-37.85Q 106.80000000000001-38.7  108.70000000000002-38.7L 108.70000000000002-38.7L 123.20000000000002-38.7Q 125.10000000000001-38.7  125.95000000000002-37.85Q 126.80000000000001-37  126.80000000000001-35.1L 126.80000000000001-35.1L 126.80000000000001-3.6Q 126.80000000000001-1.7  125.95000000000002-0.85Q 125.10000000000001 0  123.20000000000002 0ZM 164.3-51L 164.3-51L 159.60000000000002-35.8L 175.3-35.8L 170.60000000000002-51Q 170.20000000000002-51.9  169.75-52.3Q 169.3-52.7  168.70000000000002-52.7L 168.70000000000002-52.7L 166.20000000000002-52.7Q 165.60000000000002-52.7  165.15-52.3Q 164.70000000000002-51.9  164.3-51ZM 158.60000000000002-17.6L 158.60000000000002-3.6Q 158.60000000000002-1.7  157.75-0.85Q 156.9 0  155 0L 155 0L 140.3 0Q 138.4 0  137.55-0.85Q 136.70000000000002-1.7  136.70000000000002-3.6L 136.70000000000002-3.6L 136.70000000000002-30Q 136.70000000000002-33  137.65-36.9Q 138.60000000000002-40.8  140.60000000000002-46L 140.60000000000002-46L 149.3-68.7Q 149.9-70.4  151.15-71.2Q 152.4-72  154.4-72L 154.4-72L 181.3-72Q 183.20000000000002-72  184.45000000000002-71.2Q 185.70000000000002-70.4  186.3-68.7L 186.3-68.7L 195-46Q 197-40.8  197.95000000000002-36.9Q 198.9-33  198.9-30L 198.9-30L 198.9-3.6Q 198.9-1.7  198.05-0.85Q 197.20000000000002 0  195.3 0L 195.3 0L 180.20000000000002 0Q 178.20000000000002 0  177.25-0.85Q 176.3-1.7  176.3-3.6L 176.3-3.6L 176.3-17.6L 158.60000000000002-17.6ZM 244.60000000000002 0L 244.60000000000002 0L 213 0Q 211.10000000000002 0  210.25-0.85Q 209.4-1.7  209.4-3.6L 209.4-3.6L 209.4-15.3Q 209.4-17.2  210.25-18.05Q 211.10000000000002-18.9  213-18.9L 213-18.9L 239.9-18.9Q 241.20000000000002-18.9  241.85000000000002-19.75Q 242.5-20.6  242.5-21.8L 242.5-21.8Q 242.5-23.5  241.85000000000002-24.3Q 241.20000000000002-25.1  239.9-25.2L 239.9-25.2L 224.9-27.3Q 217.9-28.3  213.65-31.9Q 209.4-35.5  209.4-43.9L 209.4-43.9L 209.4-54.4Q 209.4-62.9  214.9-67.45Q 220.4-72  230.10000000000002-72L 230.10000000000002-72L 258.1-72Q 260-72  260.85-71.15Q 261.7-70.3  261.7-68.4L 261.7-68.4L 261.7-56.5Q 261.7-54.6  260.85-53.75Q 260-52.9  258.1-52.9L 258.1-52.9L 234.8-52.9Q 233.5-52.9  232.8-52.05Q 232.10000000000002-51.2  232.10000000000002-49.9L 232.10000000000002-49.9Q 232.10000000000002-48.6  232.8-47.7Q 233.5-46.8  234.8-46.7L 234.8-46.7L 249.70000000000002-44.7Q 256.7-43.7  261-40.1Q 265.3-36.5  265.3-28.1L 265.3-28.1L 265.3-17.6Q 265.3-9.1  259.75-4.55Q 254.20000000000002 0  244.60000000000002 0ZM 295.3 0L 295.3 0L 279.8 0Q 277.90000000000003 0  277.05-0.85Q 276.2-1.7  276.2-3.6L 276.2-3.6L 276.2-68.4Q 276.2-70.3  277.05-71.15Q 277.90000000000003-72  279.8-72L 279.8-72L 295.3-72Q 297.2-72  298.05-71.15Q 298.90000000000003-70.3  298.90000000000003-68.4L 298.90000000000003-68.4L 298.90000000000003-46.7L 315.6-46.7L 315.6-68.4Q 315.6-70.3  316.45-71.15Q 317.3-72  319.2-72L 319.2-72L 334.70000000000005-72Q 336.6-72  337.45000000000005-71.15Q 338.3-70.3  338.3-68.4L 338.3-68.4L 338.3-3.6Q 338.3-1.7  337.45000000000005-0.85Q 336.6 0  334.70000000000005 0L 334.70000000000005 0L 319.2 0Q 317.3 0  316.45-0.85Q 315.6-1.7  315.6-3.6L 315.6-3.6L 315.6-25.8L 298.90000000000003-25.8L 298.90000000000003-3.6Q 298.90000000000003-1.7  298.05-0.85Q 297.2 0  295.3 0Z"></path><path text="learn" text-anchor="start" font-size="100" letter-spacing="0" side="left" offset="0" dx="0" dy="0" space="preserve" href="" font-family="Bungee" font-scale="contain" transform="matrix(0.7251043634878852, 0, 0, 0.7251043634878852, 180.83506870823288, 312.558141249861)" x="0" y="0" fill="#4255ff" data-fl-textpath="" id="_9B6HNAF_VNN4vAPqAQQyX" data-uid="o_f5b3lj5ae_11" d="M 61.4 0L 61.4 0L 10.5 0Q 8.6 0  7.75-0.85Q 6.9-1.7  6.9-3.6L 6.9-3.6L 6.9-68.4Q 6.9-70.3  7.75-71.15Q 8.6-72  10.5-72L 10.5-72L 26-72Q 27.9-72  28.75-71.15Q 29.6-70.3  29.6-68.4L 29.6-68.4L 29.6-18.9L 43.3-18.9L 43.3-35.1Q 43.3-37  44.15-37.85Q 45-38.7  46.9-38.7L 46.9-38.7L 61.4-38.7Q 63.3-38.7  64.15-37.85Q 65-37  65-35.1L 65-35.1L 65-3.6Q 65-1.7  64.15-0.85Q 63.3 0  61.4 0ZM 126.4 0L 126.4 0L 80 0Q 78.1 0  77.25-0.85Q 76.4-1.7  76.4-3.6L 76.4-3.6L 76.4-68.4Q 76.4-70.3  77.25-71.15Q 78.1-72  80-72L 80-72L 126.4-72Q 128.3-72  129.15-71.15Q 130-70.3  130-68.4L 130-68.4L 130-56.7Q 130-54.8  129.15-53.95Q 128.3-53.1  126.4-53.1L 126.4-53.1L 98.8-53.1L 98.8-45.4L 118.3-45.4Q 120.2-45.4  121.05-44.55Q 121.9-43.7  121.9-41.8L 121.9-41.8L 121.9-31.1Q 121.9-29.2  121.05-28.35Q 120.2-27.5  118.3-27.5L 118.3-27.5L 98.8-27.5L 98.8-18.9L 126.4-18.9Q 128.3-18.9  129.15-18.05Q 130-17.2  130-15.3L 130-15.3L 130-3.6Q 130-1.7  129.15-0.85Q 128.3 0  126.4 0ZM 167.9-51L 167.9-51L 163.20000000000002-35.8L 178.9-35.8L 174.2-51Q 173.8-51.9  173.35000000000002-52.3Q 172.9-52.7  172.3-52.7L 172.3-52.7L 169.8-52.7Q 169.2-52.7  168.75-52.3Q 168.3-51.9  167.9-51ZM 162.20000000000002-17.6L 162.20000000000002-3.6Q 162.20000000000002-1.7  161.35-0.85Q 160.5 0  158.6 0L 158.6 0L 143.9 0Q 142 0  141.15-0.85Q 140.3-1.7  140.3-3.6L 140.3-3.6L 140.3-30Q 140.3-33  141.25-36.9Q 142.20000000000002-40.8  144.20000000000002-46L 144.20000000000002-46L 152.9-68.7Q 153.5-70.4  154.75-71.2Q 156-72  158-72L 158-72L 184.9-72Q 186.8-72  188.05-71.2Q 189.3-70.4  189.9-68.7L 189.9-68.7L 198.60000000000002-46Q 200.60000000000002-40.8  201.55-36.9Q 202.5-33  202.5-30L 202.5-30L 202.5-3.6Q 202.5-1.7  201.65-0.85Q 200.8 0  198.9 0L 198.9 0L 183.8 0Q 181.8 0  180.85000000000002-0.85Q 179.9-1.7  179.9-3.6L 179.9-3.6L 179.9-17.6L 162.20000000000002-17.6ZM 244.9-54L 237.4-54L 237.4-41.2L 244.9-41.2Q 247.5-41.2  248.4-42.55Q 249.3-43.9  249.3-45.9L 249.3-45.9L 249.3-49.3Q 249.3-51.3  248.4-52.65Q 247.5-54  244.9-54L 244.9-54ZM 233.8 0L 233.8 0L 218.4 0Q 216.5 0  215.65-0.85Q 214.8-1.7  214.8-3.6L 214.8-3.6L 214.8-68.4Q 214.8-70.3  215.65-71.15Q 216.5-72  218.4-72L 218.4-72L 251.7-72Q 262.9-72  267.15-67.35Q 271.4-62.7  271.4-55.3L 271.4-55.3L 271.4-50.7Q 271.4-46.5  270.15-43.55Q 268.9-40.6  265.8-39.3L 265.8-39.3Q 271.2-38.7  274.55-34.9Q 277.9-31.1  277.9-24.8L 277.9-24.8L 277.9-3.6Q 277.9-1.7  277.05-0.85Q 276.2 0  274.3 0L 274.3 0L 258.8 0Q 256.9 0  256.05-0.85Q 255.2-1.7  255.2-3.6L 255.2-3.6L 255.2-18.9Q 255.2-21.1  254.35000000000002-22.15Q 253.5-23.2  251.4-23.2L 251.4-23.2L 237.4-23.2L 237.4-3.6Q 237.4-1.7  236.55-0.85Q 235.70000000000002 0  233.8 0ZM 307.7 0L 307.7 0L 292.7 0Q 290.8 0  289.95-0.85Q 289.09999999999997-1.7  289.09999999999997-3.6L 289.09999999999997-3.6L 289.09999999999997-68.4Q 289.09999999999997-70.3  289.95-71.15Q 290.8-72  292.7-72L 292.7-72L 303.09999999999997-72Q 305-72  306.34999999999997-71.4Q 307.7-70.8  309-69.3L 309-69.3L 328.4-47.1L 328.4-68.4Q 328.4-70.3  329.25-71.15Q 330.09999999999997-72  332-72L 332-72L 347-72Q 348.9-72  349.75-71.15Q 350.6-70.3  350.6-68.4L 350.6-68.4L 350.6-3.6Q 350.6-1.7  349.75-0.85Q 348.9 0  347 0L 347 0L 332 0Q 330.09999999999997 0  329.25-0.85Q 328.4-1.7  328.4-3.6L 328.4-3.6L 328.4-15.9L 311.3-36.6L 311.3-3.6Q 311.3-1.7  310.45-0.85Q 309.59999999999997 0  307.7 0Z"></path><g transform="matrix(0.2545653775192397, 0, 0, 0.2209305320196197, 41.903890962525224, 199.441858855487)" data-uid="o_f5b3lj5ae_43"><path d="m419.498 188.496c-2.49-5.186-7.734-8.496-13.506-8.496h-95.742l79.16-158.291c2.314-4.644 2.08-10.166-.645-14.59-2.753-4.424-7.587-7.119-12.773-7.119h-180c-6.24 0-11.836 3.882-14.033 9.727l-90 240c-1.729 4.614-1.084 9.771 1.699 13.813 2.813 4.043 7.412 6.46 12.334 6.46h100.781l-55.342 223.367c-1.699 6.841 1.582 13.945 7.91 17.08 6.309 3.11 13.942 1.439 18.369-4.072l240-302c3.605-4.512 4.308-10.679 1.788-15.879z" fill="url(#o_f5b3lj5ae_22)" transform="matrix(1.0000019531288147, 0, 0, 1.0000019531288147, 0, 0)" data-uid="o_f5b3lj5ae_41"></path></g></svg>